<?xml version="1.0" encoding="iso-8859-1"?>
<!-- Generator: Adobe Illustrator 17.1.0, SVG Export Plug-In . SVG Version: 6.00 Build 0)  -->
<!DOCTYPE svg PUBLIC "-//W3C//DTD SVG 1.1//EN" "http://www.w3.org/Graphics/SVG/1.1/DTD/svg11.dtd">
<svg version="1.1" id="Capa_1" xmlns="http://www.w3.org/2000/svg" xmlns:xlink="http://www.w3.org/1999/xlink" x="0px" y="0px"
	 viewBox="0 0 100 100" style="enable-background:new 0 0 100 100;" xml:space="preserve">
<g>
	<path style="fill:#F1F2F2;" d="M22.845,9.102H9.423c-3.019,0-5.475,2.456-5.475,5.474v13.422c0,3.019,2.456,5.474,5.475,5.474
		h13.422c3.019,0,5.474-2.456,5.474-5.474V14.576C28.318,11.557,25.863,9.102,22.845,9.102z"/>
	<path style="fill:#F1F2F2;" d="M90.044,9.102H38.622c-3.019,0-5.474,2.456-5.474,5.474v13.422c0,3.019,2.455,5.474,5.474,5.474
		h51.422c3.019,0,5.475-2.456,5.475-5.474V14.576C95.519,11.557,93.062,9.102,90.044,9.102z"/>
	<path style="fill:#F1F2F2;" d="M22.845,38.63H9.423c-3.019,0-5.475,2.456-5.475,5.474v13.422C3.948,60.545,6.404,63,9.423,63
		h13.422c3.019,0,5.474-2.455,5.474-5.474V44.104C28.318,41.085,25.863,38.63,22.845,38.63z"/>
	<path style="fill:#F1F2F2;" d="M90.044,38.63H38.622c-3.019,0-5.474,2.456-5.474,5.474v13.422c0,3.019,2.455,5.474,5.474,5.474
		h51.422c3.019,0,5.475-2.455,5.475-5.474V44.104C95.519,41.085,93.062,38.63,90.044,38.63z"/>
	<path style="fill:#F1F2F2;" d="M22.845,68.158H9.423c-3.019,0-5.475,2.456-5.475,5.475v13.422c0,3.019,2.456,5.474,5.475,5.474
		h13.422c3.019,0,5.474-2.455,5.474-5.474V73.633C28.318,70.614,25.863,68.158,22.845,68.158z"/>
	<path style="fill:#F1F2F2;" d="M90.044,68.158H38.622c-3.019,0-5.474,2.456-5.474,5.475v13.422c0,3.019,2.455,5.474,5.474,5.474
		h51.422c3.019,0,5.475-2.455,5.475-5.474V73.633C95.519,70.614,93.062,68.158,90.044,68.158z"/>
</g>
</svg>
